# xmcd
#
# Track frame offsets:
#	150
#	16769
#	34347
#
# Disc length: 665 seconds
#
# Revision: 3
# Processed by: cddbd v1.5.2PL0 Copyright (c) Steve Scherf et al.
# Submitted via: audiograbber 1.83.01
#
DISCID=19029703
DTITLE=Suit Yourself - Eldorado Sunrise
DYEAR=2001
DGENRE=
TTITLE0=Eldorado Sunrise
TTITLE1=What I Deserve
TTITLE2=Take My Belief
EXTD=YEAR: 2001
EXTT0=
EXTT1=
EXTT2=
PLAYORDER=
